<?xml version="1.0" encoding="UTF-8" standalone="no"?>
<!DOCTYPE svg PUBLIC "-//W3C//DTD SVG 1.1//EN"
 "http://www.w3.org/Graphics/SVG/1.1/DTD/svg11.dtd">
<!-- Generated by graphviz version 2.40.1 (20161225.0304)
 -->
<!-- Title: public.account_roles Pages: 1 -->
<svg width="843pt" height="562pt"
 viewBox="0.00 0.00 843.00 562.00" xmlns="http://www.w3.org/2000/svg" xmlns:xlink="http://www.w3.org/1999/xlink">
<g id="graph0" class="graph" transform="scale(1 1) rotate(0) translate(4 558)">
<title>public.account_roles</title>
<polygon fill="#ffffff" stroke="transparent" points="-4,4 -4,-558 839,-558 839,4 -4,4"/>
<!-- public.account_roles -->
<g id="node1" class="node">
<title>public.account_roles</title>
<polygon fill="#efefef" stroke="transparent" points="277,-472.5 277,-507.5 582,-507.5 582,-472.5 277,-472.5"/>
<polygon fill="none" stroke="#000000" points="277,-472.5 277,-507.5 582,-507.5 582,-472.5 277,-472.5"/>
<text text-anchor="start" x="283.6954" y="-485.3" font-family="Arial Bold" font-size="18.00" fill="#000000">public.account_roles</text>
<text text-anchor="start" x="447.7366" y="-485.3" font-family="Arial" font-size="14.00" fill="#000000">    </text>
<text text-anchor="start" x="481.9414" y="-485.3" font-family="Arial" font-size="14.00" fill="#666666">[BASE TABLE]</text>
<polygon fill="none" stroke="#000000" points="277,-442.5 277,-472.5 582,-472.5 582,-442.5 277,-442.5"/>
<text text-anchor="start" x="284" y="-453.9" font-family="Arial" font-size="14.00" fill="#000000">user_id </text>
<text text-anchor="start" x="333.7882" y="-453.9" font-family="Arial" font-size="14.00" fill="#666666">[integer]</text>
<polygon fill="none" stroke="#000000" points="277,-412.5 277,-442.5 582,-442.5 582,-412.5 277,-412.5"/>
<text text-anchor="start" x="284" y="-423.9" font-family="Arial" font-size="14.00" fill="#000000">role_id </text>
<text text-anchor="start" x="329.8948" y="-423.9" font-family="Arial" font-size="14.00" fill="#666666">[integer]</text>
<polygon fill="none" stroke="#000000" points="277,-382.5 277,-412.5 582,-412.5 582,-382.5 277,-382.5"/>
<text text-anchor="start" x="284" y="-393.9" font-family="Arial" font-size="14.00" fill="#000000">grant_date </text>
<text text-anchor="start" x="354.8106" y="-393.9" font-family="Arial" font-size="14.00" fill="#666666">[timestamp without time zone]</text>
<polygon fill="none" stroke="#000000" stroke-width="3" points="275,-381.5 275,-509.5 583,-509.5 583,-381.5 275,-381.5"/>
</g>
<!-- public.accounts -->
<g id="node2" class="node">
<title>public.accounts</title>
<polygon fill="#efefef" stroke="transparent" points="93,-222.5 93,-257.5 396,-257.5 396,-222.5 93,-222.5"/>
<polygon fill="none" stroke="#000000" points="93,-222.5 93,-257.5 396,-257.5 396,-222.5 93,-222.5"/>
<text text-anchor="start" x="118.6979" y="-235.3" font-family="Arial Bold" font-size="18.00" fill="#000000">public.accounts</text>
<text text-anchor="start" x="242.7341" y="-235.3" font-family="Arial" font-size="14.00" fill="#000000">    </text>
<text text-anchor="start" x="276.9389" y="-235.3" font-family="Arial" font-size="14.00" fill="#666666">[BASE TABLE]</text>
<polygon fill="none" stroke="#000000" points="93,-192.5 93,-222.5 396,-222.5 396,-192.5 93,-192.5"/>
<text text-anchor="start" x="100" y="-203.9" font-family="Arial" font-size="14.00" fill="#000000">user_id    </text>
<text text-anchor="start" x="180.1024" y="-203.9" font-family="Arial" font-size="14.00" fill="#666666">[integer]</text>
<polygon fill="none" stroke="#000000" points="93,-162.5 93,-192.5 396,-192.5 396,-162.5 93,-162.5"/>
<text text-anchor="start" x="100" y="-173.9" font-family="Arial" font-size="14.00" fill="#000000">username    </text>
<text text-anchor="start" x="196.439" y="-173.9" font-family="Arial" font-size="14.00" fill="#666666">[varchar(50)]</text>
<polygon fill="none" stroke="#000000" points="93,-132.5 93,-162.5 396,-162.5 396,-132.5 93,-132.5"/>
<text text-anchor="start" x="100" y="-143.9" font-family="Arial" font-size="14.00" fill="#000000">password    </text>
<text text-anchor="start" x="194.1024" y="-143.9" font-family="Arial" font-size="14.00" fill="#666666">[varchar(50)]</text>
<polygon fill="none" stroke="#000000" points="93,-102.5 93,-132.5 396,-132.5 396,-102.5 93,-102.5"/>
<text text-anchor="start" x="100" y="-113.9" font-family="Arial" font-size="14.00" fill="#000000">email    </text>
<text text-anchor="start" x="167.6438" y="-113.9" font-family="Arial" font-size="14.00" fill="#666666">[varchar(255)]</text>
<polygon fill="none" stroke="#000000" points="93,-72.5 93,-102.5 396,-102.5 396,-72.5 93,-72.5"/>
<text text-anchor="start" x="99.8128" y="-83.9" font-family="Arial" font-size="14.00" fill="#000000">created_on    </text>
<text text-anchor="start" x="204.047" y="-83.9" font-family="Arial" font-size="14.00" fill="#666666">[timestamp without time zone]</text>
<polygon fill="none" stroke="#000000" points="93,-42.5 93,-72.5 396,-72.5 396,-42.5 93,-42.5"/>
<text text-anchor="start" x="100" y="-53.9" font-family="Arial" font-size="14.00" fill="#000000">last_login    </text>
<text text-anchor="start" x="193.3282" y="-53.9" font-family="Arial" font-size="14.00" fill="#666666">[timestamp without time zone]</text>
</g>
<!-- public.account_roles&#45;&gt;public.accounts -->
<g id="edge1" class="edge">
<title>public.account_roles:user_id&#45;&gt;public.accounts:user_id</title>
<path fill="none" stroke="#000000" d="M267.0503,-456.4494C226.4506,-447.066 247.2627,-377.0644 277,-337 309.9328,-292.6303 363.0672,-345.3697 396,-301 420.7672,-267.6316 437.5556,-207.5 396,-207.5"/>
<polygon fill="#000000" stroke="#000000" points="267.0553,-456.4498 276.5274,-461.9751 272.0276,-456.9749 277,-457.5 277,-457.5 277,-457.5 272.0276,-456.9749 277.4726,-453.0249 267.0553,-456.4498 267.0553,-456.4498"/>
<text text-anchor="start" x="7.0475" y="-467.5" font-family="Arial" font-size="10.00" fill="#000000">FOREIGN KEY (user_id) REFERENCES accounts(user_id)</text>
</g>
<!-- public.roles -->
<g id="node3" class="node">
<title>public.roles</title>
<polygon fill="#efefef" stroke="transparent" points="500,-162.5 500,-197.5 732,-197.5 732,-162.5 500,-162.5"/>
<polygon fill="none" stroke="#000000" points="500,-162.5 500,-197.5 732,-197.5 732,-162.5 500,-162.5"/>
<text text-anchor="start" x="506.712" y="-175.3" font-family="Arial Bold" font-size="18.00" fill="#000000">public.roles</text>
<text text-anchor="start" x="597.72" y="-175.3" font-family="Arial" font-size="14.00" fill="#000000">    </text>
<text text-anchor="start" x="631.9248" y="-175.3" font-family="Arial" font-size="14.00" fill="#666666">[BASE TABLE]</text>
<polygon fill="none" stroke="#000000" points="500,-132.5 500,-162.5 732,-162.5 732,-132.5 500,-132.5"/>
<text text-anchor="start" x="507" y="-143.9" font-family="Arial" font-size="14.00" fill="#000000">role_id    </text>
<text text-anchor="start" x="583.209" y="-143.9" font-family="Arial" font-size="14.00" fill="#666666">[integer]</text>
<polygon fill="none" stroke="#000000" points="500,-102.5 500,-132.5 732,-132.5 732,-102.5 500,-102.5"/>
<text text-anchor="start" x="507" y="-113.9" font-family="Arial" font-size="14.00" fill="#000000">role_name    </text>
<text text-anchor="start" x="607.3282" y="-113.9" font-family="Arial" font-size="14.00" fill="#666666">[varchar(255)]</text>
</g>
<!-- public.account_roles&#45;&gt;public.roles -->
<g id="edge2" class="edge">
<title>public.account_roles:role_id&#45;&gt;public.roles:role_id</title>
<path fill="none" stroke="#000000" d="M591.9541,-426.0535C617.2036,-417.3378 594.5629,-371.0507 582,-337 562.5771,-284.356 519.4229,-293.644 500,-241 485.6159,-202.0133 458.4444,-147.5 500,-147.5"/>
<polygon fill="#000000" stroke="#000000" points="591.8961,-426.0619 581.3529,-423.0468 586.948,-426.7809 582,-427.5 582,-427.5 582,-427.5 586.948,-426.7809 582.6471,-431.9532 591.8961,-426.0619 591.8961,-426.0619"/>
<text text-anchor="start" x="589.003" y="-437.5" font-family="Arial" font-size="10.00" fill="#000000">FOREIGN KEY (role_id) REFERENCES roles(role_id)</text>
</g>
</g>
</svg>
