<?xml version="1.0" encoding="UTF-8" standalone="no"?>
<!DOCTYPE svg PUBLIC "-//W3C//DTD SVG 1.1//EN"
 "http://www.w3.org/Graphics/SVG/1.1/DTD/svg11.dtd">
<!-- Generated by graphviz version 2.40.1 (20161225.0304)
 -->
<!-- Title: public.roles Pages: 1 -->
<svg width="610pt" height="442pt"
 viewBox="0.00 0.00 609.50 442.00" xmlns="http://www.w3.org/2000/svg" xmlns:xlink="http://www.w3.org/1999/xlink">
<g id="graph0" class="graph" transform="scale(1 1) rotate(0) translate(4 438)">
<title>public.roles</title>
<polygon fill="#ffffff" stroke="transparent" points="-4,4 -4,-438 605.5,-438 605.5,4 -4,4"/>
<!-- public.roles -->
<g id="node1" class="node">
<title>public.roles</title>
<polygon fill="#efefef" stroke="transparent" points="80.5,-105.5 80.5,-140.5 312.5,-140.5 312.5,-105.5 80.5,-105.5"/>
<polygon fill="none" stroke="#000000" points="80.5,-105.5 80.5,-140.5 312.5,-140.5 312.5,-105.5 80.5,-105.5"/>
<text text-anchor="start" x="87.212" y="-118.3" font-family="Arial Bold" font-size="18.00" fill="#000000">public.roles</text>
<text text-anchor="start" x="178.22" y="-118.3" font-family="Arial" font-size="14.00" fill="#000000">    </text>
<text text-anchor="start" x="212.4248" y="-118.3" font-family="Arial" font-size="14.00" fill="#666666">[BASE TABLE]</text>
<polygon fill="none" stroke="#000000" points="80.5,-75.5 80.5,-105.5 312.5,-105.5 312.5,-75.5 80.5,-75.5"/>
<text text-anchor="start" x="87.5" y="-86.9" font-family="Arial" font-size="14.00" fill="#000000">role_id </text>
<text text-anchor="start" x="133.3948" y="-86.9" font-family="Arial" font-size="14.00" fill="#666666">[integer]</text>
<polygon fill="none" stroke="#000000" points="80.5,-45.5 80.5,-75.5 312.5,-75.5 312.5,-45.5 80.5,-45.5"/>
<text text-anchor="start" x="87.5" y="-56.9" font-family="Arial" font-size="14.00" fill="#000000">role_name </text>
<text text-anchor="start" x="157.514" y="-56.9" font-family="Arial" font-size="14.00" fill="#666666">[varchar(255)]</text>
<polygon fill="none" stroke="#000000" stroke-width="3" points="79,-44.5 79,-142.5 314,-142.5 314,-44.5 79,-44.5"/>
</g>
<!-- public.account_roles -->
<g id="node2" class="node">
<title>public.account_roles</title>
<polygon fill="#efefef" stroke="transparent" points="43.5,-355.5 43.5,-390.5 348.5,-390.5 348.5,-355.5 43.5,-355.5"/>
<polygon fill="none" stroke="#000000" points="43.5,-355.5 43.5,-390.5 348.5,-390.5 348.5,-355.5 43.5,-355.5"/>
<text text-anchor="start" x="50.1954" y="-368.3" font-family="Arial Bold" font-size="18.00" fill="#000000">public.account_roles</text>
<text text-anchor="start" x="214.2366" y="-368.3" font-family="Arial" font-size="14.00" fill="#000000">    </text>
<text text-anchor="start" x="248.4414" y="-368.3" font-family="Arial" font-size="14.00" fill="#666666">[BASE TABLE]</text>
<polygon fill="none" stroke="#000000" points="43.5,-325.5 43.5,-355.5 348.5,-355.5 348.5,-325.5 43.5,-325.5"/>
<text text-anchor="start" x="50.5" y="-336.9" font-family="Arial" font-size="14.00" fill="#000000">user_id    </text>
<text text-anchor="start" x="130.6024" y="-336.9" font-family="Arial" font-size="14.00" fill="#666666">[integer]</text>
<polygon fill="none" stroke="#000000" points="43.5,-295.5 43.5,-325.5 348.5,-325.5 348.5,-295.5 43.5,-295.5"/>
<text text-anchor="start" x="50.5" y="-306.9" font-family="Arial" font-size="14.00" fill="#000000">role_id    </text>
<text text-anchor="start" x="126.709" y="-306.9" font-family="Arial" font-size="14.00" fill="#666666">[integer]</text>
<polygon fill="none" stroke="#000000" points="43.5,-265.5 43.5,-295.5 348.5,-295.5 348.5,-265.5 43.5,-265.5"/>
<text text-anchor="start" x="50.5" y="-276.9" font-family="Arial" font-size="14.00" fill="#000000">grant_date    </text>
<text text-anchor="start" x="151.6248" y="-276.9" font-family="Arial" font-size="14.00" fill="#666666">[timestamp without time zone]</text>
</g>
<!-- public.account_roles&#45;&gt;public.roles -->
<g id="edge1" class="edge">
<title>public.account_roles:role_id&#45;&gt;public.roles:role_id</title>
<path fill="none" stroke="#000000" d="M358.4376,-308.9153C384.6765,-299.4035 371.6025,-249.4133 348.5,-223 269.3781,-132.5391 159.6219,-277.4609 80.5,-187 52.2638,-154.7173 37.6111,-90.5 80.5,-90.5"/>
<polygon fill="#000000" stroke="#000000" points="358.3752,-308.9251 347.7913,-306.0561 353.4376,-309.7126 348.5,-310.5 348.5,-310.5 348.5,-310.5 353.4376,-309.7126 349.2087,-314.9439 358.3752,-308.9251 358.3752,-308.9251"/>
<text text-anchor="start" x="355.503" y="-320.5" font-family="Arial" font-size="10.00" fill="#000000">FOREIGN KEY (role_id) REFERENCES roles(role_id)</text>
</g>
</g>
</svg>
