<?xml version="1.0" encoding="UTF-8" standalone="no"?>
<!DOCTYPE svg PUBLIC "-//W3C//DTD SVG 1.1//EN"
 "http://www.w3.org/Graphics/SVG/1.1/DTD/svg11.dtd">
<!-- Generated by graphviz version 2.40.1 (20161225.0304)
 -->
<!-- Title: public.accounts Pages: 1 -->
<svg width="633pt" height="562pt"
 viewBox="0.00 0.00 632.50 562.00" xmlns="http://www.w3.org/2000/svg" xmlns:xlink="http://www.w3.org/1999/xlink">
<g id="graph0" class="graph" transform="scale(1 1) rotate(0) translate(4 558)">
<title>public.accounts</title>
<polygon fill="#ffffff" stroke="transparent" points="-4,4 -4,-558 628.5,-558 628.5,4 -4,4"/>
<!-- public.accounts -->
<g id="node1" class="node">
<title>public.accounts</title>
<polygon fill="#efefef" stroke="transparent" points="293,-225.5 293,-260.5 566,-260.5 566,-225.5 293,-225.5"/>
<polygon fill="none" stroke="#000000" points="293,-225.5 293,-260.5 566,-260.5 566,-225.5 293,-225.5"/>
<text text-anchor="start" x="303.6979" y="-238.3" font-family="Arial Bold" font-size="18.00" fill="#000000">public.accounts</text>
<text text-anchor="start" x="427.7341" y="-238.3" font-family="Arial" font-size="14.00" fill="#000000">    </text>
<text text-anchor="start" x="461.9389" y="-238.3" font-family="Arial" font-size="14.00" fill="#666666">[BASE TABLE]</text>
<polygon fill="none" stroke="#000000" points="293,-195.5 293,-225.5 566,-225.5 566,-195.5 293,-195.5"/>
<text text-anchor="start" x="300" y="-206.9" font-family="Arial" font-size="14.00" fill="#000000">user_id </text>
<text text-anchor="start" x="349.7882" y="-206.9" font-family="Arial" font-size="14.00" fill="#666666">[integer]</text>
<polygon fill="none" stroke="#000000" points="293,-165.5 293,-195.5 566,-195.5 566,-165.5 293,-165.5"/>
<text text-anchor="start" x="300" y="-176.9" font-family="Arial" font-size="14.00" fill="#000000">username </text>
<text text-anchor="start" x="366.1248" y="-176.9" font-family="Arial" font-size="14.00" fill="#666666">[varchar(50)]</text>
<polygon fill="none" stroke="#000000" points="293,-135.5 293,-165.5 566,-165.5 566,-135.5 293,-135.5"/>
<text text-anchor="start" x="300" y="-146.9" font-family="Arial" font-size="14.00" fill="#000000">password </text>
<text text-anchor="start" x="363.7882" y="-146.9" font-family="Arial" font-size="14.00" fill="#666666">[varchar(50)]</text>
<polygon fill="none" stroke="#000000" points="293,-105.5 293,-135.5 566,-135.5 566,-105.5 293,-105.5"/>
<text text-anchor="start" x="300" y="-116.9" font-family="Arial" font-size="14.00" fill="#000000">email </text>
<text text-anchor="start" x="337.3296" y="-116.9" font-family="Arial" font-size="14.00" fill="#666666">[varchar(255)]</text>
<polygon fill="none" stroke="#000000" points="293,-75.5 293,-105.5 566,-105.5 566,-75.5 293,-75.5"/>
<text text-anchor="start" x="299.9699" y="-86.9" font-family="Arial" font-size="14.00" fill="#000000">created_on </text>
<text text-anchor="start" x="373.8899" y="-86.9" font-family="Arial" font-size="14.00" fill="#666666">[timestamp without time zone]</text>
<polygon fill="none" stroke="#000000" points="293,-45.5 293,-75.5 566,-75.5 566,-45.5 293,-45.5"/>
<text text-anchor="start" x="300" y="-56.9" font-family="Arial" font-size="14.00" fill="#000000">last_login </text>
<text text-anchor="start" x="363.014" y="-56.9" font-family="Arial" font-size="14.00" fill="#666666">[timestamp without time zone]</text>
<polygon fill="none" stroke="#000000" stroke-width="3" points="291,-44.5 291,-262.5 567,-262.5 567,-44.5 291,-44.5"/>
</g>
<!-- public.account_roles -->
<g id="node2" class="node">
<title>public.account_roles</title>
<polygon fill="#efefef" stroke="transparent" points="277,-475.5 277,-510.5 582,-510.5 582,-475.5 277,-475.5"/>
<polygon fill="none" stroke="#000000" points="277,-475.5 277,-510.5 582,-510.5 582,-475.5 277,-475.5"/>
<text text-anchor="start" x="283.6954" y="-488.3" font-family="Arial Bold" font-size="18.00" fill="#000000">public.account_roles</text>
<text text-anchor="start" x="447.7366" y="-488.3" font-family="Arial" font-size="14.00" fill="#000000">    </text>
<text text-anchor="start" x="481.9414" y="-488.3" font-family="Arial" font-size="14.00" fill="#666666">[BASE TABLE]</text>
<polygon fill="none" stroke="#000000" points="277,-445.5 277,-475.5 582,-475.5 582,-445.5 277,-445.5"/>
<text text-anchor="start" x="284" y="-456.9" font-family="Arial" font-size="14.00" fill="#000000">user_id    </text>
<text text-anchor="start" x="364.1024" y="-456.9" font-family="Arial" font-size="14.00" fill="#666666">[integer]</text>
<polygon fill="none" stroke="#000000" points="277,-415.5 277,-445.5 582,-445.5 582,-415.5 277,-415.5"/>
<text text-anchor="start" x="284" y="-426.9" font-family="Arial" font-size="14.00" fill="#000000">role_id    </text>
<text text-anchor="start" x="360.209" y="-426.9" font-family="Arial" font-size="14.00" fill="#666666">[integer]</text>
<polygon fill="none" stroke="#000000" points="277,-385.5 277,-415.5 582,-415.5 582,-385.5 277,-385.5"/>
<text text-anchor="start" x="284" y="-396.9" font-family="Arial" font-size="14.00" fill="#000000">grant_date    </text>
<text text-anchor="start" x="385.1248" y="-396.9" font-family="Arial" font-size="14.00" fill="#666666">[timestamp without time zone]</text>
</g>
<!-- public.account_roles&#45;&gt;public.accounts -->
<g id="edge1" class="edge">
<title>public.account_roles:user_id&#45;&gt;public.accounts:user_id</title>
<path fill="none" stroke="#000000" d="M267.3941,-457.6924C223.4857,-430.2266 240.8101,-210.5 293,-210.5"/>
<polygon fill="#000000" stroke="#000000" points="267.4016,-457.6945 275.7375,-464.8193 272.2008,-459.0973 277,-460.5 277,-460.5 277,-460.5 272.2008,-459.0973 278.2625,-456.1807 267.4016,-457.6945 267.4016,-457.6945"/>
<text text-anchor="start" x="7.0475" y="-470.5" font-family="Arial" font-size="10.00" fill="#000000">FOREIGN KEY (user_id) REFERENCES accounts(user_id)</text>
</g>
</g>
</svg>
