<?xml version="1.0" encoding="UTF-8" standalone="no"?>
<!DOCTYPE svg PUBLIC "-//W3C//DTD SVG 1.1//EN"
 "http://www.w3.org/Graphics/SVG/1.1/DTD/svg11.dtd">
<!-- Generated by graphviz version 2.40.1 (20161225.0304)
 -->
<!-- Title: postgres Pages: 1 -->
<svg width="843pt" height="556pt"
 viewBox="0.00 0.00 843.00 556.00" xmlns="http://www.w3.org/2000/svg" xmlns:xlink="http://www.w3.org/1999/xlink">
<g id="graph0" class="graph" transform="scale(1 1) rotate(0) translate(4 552)">
<title>postgres</title>
<polygon fill="#ffffff" stroke="transparent" points="-4,4 -4,-552 839,-552 839,4 -4,4"/>
<!-- public.accounts -->
<g id="node1" class="node">
<title>public.accounts</title>
<polygon fill="#efefef" stroke="transparent" points="93,-222.5 93,-257.5 396,-257.5 396,-222.5 93,-222.5"/>
<polygon fill="none" stroke="#000000" points="93,-222.5 93,-257.5 396,-257.5 396,-222.5 93,-222.5"/>
<text text-anchor="start" x="118.6979" y="-235.3" font-family="Arial Bold" font-size="18.00" fill="#000000">public.accounts</text>
<text text-anchor="start" x="242.7341" y="-235.3" font-family="Arial" font-size="14.00" fill="#000000">    </text>
<text text-anchor="start" x="276.9389" y="-235.3" font-family="Arial" font-size="14.00" fill="#666666">[BASE TABLE]</text>
<polygon fill="none" stroke="#000000" points="93,-192.5 93,-222.5 396,-222.5 396,-192.5 93,-192.5"/>
<text text-anchor="start" x="100" y="-203.9" font-family="Arial" font-size="14.00" fill="#000000">user_id    </text>
<text text-anchor="start" x="180.1024" y="-203.9" font-family="Arial" font-size="14.00" fill="#666666">[integer]</text>
<polygon fill="none" stroke="#000000" points="93,-162.5 93,-192.5 396,-192.5 396,-162.5 93,-162.5"/>
<text text-anchor="start" x="100" y="-173.9" font-family="Arial" font-size="14.00" fill="#000000">username    </text>
<text text-anchor="start" x="196.439" y="-173.9" font-family="Arial" font-size="14.00" fill="#666666">[varchar(50)]</text>
<polygon fill="none" stroke="#000000" points="93,-132.5 93,-162.5 396,-162.5 396,-132.5 93,-132.5"/>
<text text-anchor="start" x="100" y="-143.9" font-family="Arial" font-size="14.00" fill="#000000">password    </text>
<text text-anchor="start" x="194.1024" y="-143.9" font-family="Arial" font-size="14.00" fill="#666666">[varchar(50)]</text>
<polygon fill="none" stroke="#000000" points="93,-102.5 93,-132.5 396,-132.5 396,-102.5 93,-102.5"/>
<text text-anchor="start" x="100" y="-113.9" font-family="Arial" font-size="14.00" fill="#000000">email    </text>
<text text-anchor="start" x="167.6438" y="-113.9" font-family="Arial" font-size="14.00" fill="#666666">[varchar(255)]</text>
<polygon fill="none" stroke="#000000" points="93,-72.5 93,-102.5 396,-102.5 396,-72.5 93,-72.5"/>
<text text-anchor="start" x="99.8128" y="-83.9" font-family="Arial" font-size="14.00" fill="#000000">created_on    </text>
<text text-anchor="start" x="204.047" y="-83.9" font-family="Arial" font-size="14.00" fill="#666666">[timestamp without time zone]</text>
<polygon fill="none" stroke="#000000" points="93,-42.5 93,-72.5 396,-72.5 396,-42.5 93,-42.5"/>
<text text-anchor="start" x="100" y="-53.9" font-family="Arial" font-size="14.00" fill="#000000">last_login    </text>
<text text-anchor="start" x="193.3282" y="-53.9" font-family="Arial" font-size="14.00" fill="#666666">[timestamp without time zone]</text>
</g>
<!-- public.roles -->
<g id="node2" class="node">
<title>public.roles</title>
<polygon fill="#efefef" stroke="transparent" points="500,-162.5 500,-197.5 732,-197.5 732,-162.5 500,-162.5"/>
<polygon fill="none" stroke="#000000" points="500,-162.5 500,-197.5 732,-197.5 732,-162.5 500,-162.5"/>
<text text-anchor="start" x="506.712" y="-175.3" font-family="Arial Bold" font-size="18.00" fill="#000000">public.roles</text>
<text text-anchor="start" x="597.72" y="-175.3" font-family="Arial" font-size="14.00" fill="#000000">    </text>
<text text-anchor="start" x="631.9248" y="-175.3" font-family="Arial" font-size="14.00" fill="#666666">[BASE TABLE]</text>
<polygon fill="none" stroke="#000000" points="500,-132.5 500,-162.5 732,-162.5 732,-132.5 500,-132.5"/>
<text text-anchor="start" x="507" y="-143.9" font-family="Arial" font-size="14.00" fill="#000000">role_id    </text>
<text text-anchor="start" x="583.209" y="-143.9" font-family="Arial" font-size="14.00" fill="#666666">[integer]</text>
<polygon fill="none" stroke="#000000" points="500,-102.5 500,-132.5 732,-132.5 732,-102.5 500,-102.5"/>
<text text-anchor="start" x="507" y="-113.9" font-family="Arial" font-size="14.00" fill="#000000">role_name    </text>
<text text-anchor="start" x="607.3282" y="-113.9" font-family="Arial" font-size="14.00" fill="#666666">[varchar(255)]</text>
</g>
<!-- public.account_roles -->
<g id="node3" class="node">
<title>public.account_roles</title>
<polygon fill="#efefef" stroke="transparent" points="277,-469.5 277,-504.5 582,-504.5 582,-469.5 277,-469.5"/>
<polygon fill="none" stroke="#000000" points="277,-469.5 277,-504.5 582,-504.5 582,-469.5 277,-469.5"/>
<text text-anchor="start" x="283.6954" y="-482.3" font-family="Arial Bold" font-size="18.00" fill="#000000">public.account_roles</text>
<text text-anchor="start" x="447.7366" y="-482.3" font-family="Arial" font-size="14.00" fill="#000000">    </text>
<text text-anchor="start" x="481.9414" y="-482.3" font-family="Arial" font-size="14.00" fill="#666666">[BASE TABLE]</text>
<polygon fill="none" stroke="#000000" points="277,-439.5 277,-469.5 582,-469.5 582,-439.5 277,-439.5"/>
<text text-anchor="start" x="284" y="-450.9" font-family="Arial" font-size="14.00" fill="#000000">user_id    </text>
<text text-anchor="start" x="364.1024" y="-450.9" font-family="Arial" font-size="14.00" fill="#666666">[integer]</text>
<polygon fill="none" stroke="#000000" points="277,-409.5 277,-439.5 582,-439.5 582,-409.5 277,-409.5"/>
<text text-anchor="start" x="284" y="-420.9" font-family="Arial" font-size="14.00" fill="#000000">role_id    </text>
<text text-anchor="start" x="360.209" y="-420.9" font-family="Arial" font-size="14.00" fill="#666666">[integer]</text>
<polygon fill="none" stroke="#000000" points="277,-379.5 277,-409.5 582,-409.5 582,-379.5 277,-379.5"/>
<text text-anchor="start" x="284" y="-390.9" font-family="Arial" font-size="14.00" fill="#000000">grant_date    </text>
<text text-anchor="start" x="385.1248" y="-390.9" font-family="Arial" font-size="14.00" fill="#666666">[timestamp without time zone]</text>
</g>
<!-- public.account_roles&#45;&gt;public.accounts -->
<g id="edge1" class="edge">
<title>public.account_roles:user_id&#45;&gt;public.accounts:user_id</title>
<path fill="none" stroke="#000000" d="M267.0498,-453.4172C227.7942,-444.0397 248.0638,-375.9851 277,-337 309.9328,-292.6303 363.0672,-345.3697 396,-301 420.7672,-267.6316 437.5556,-207.5 396,-207.5"/>
<polygon fill="#000000" stroke="#000000" points="267.0587,-453.4181 276.5131,-458.9736 272.0293,-453.959 277,-454.5 277,-454.5 277,-454.5 272.0293,-453.959 277.4869,-450.0264 267.0587,-453.4181 267.0587,-453.4181"/>
<text text-anchor="start" x="7.0475" y="-464.5" font-family="Arial" font-size="10.00" fill="#000000">FOREIGN KEY (user_id) REFERENCES accounts(user_id)</text>
</g>
<!-- public.account_roles&#45;&gt;public.roles -->
<g id="edge2" class="edge">
<title>public.account_roles:role_id&#45;&gt;public.roles:role_id</title>
<path fill="none" stroke="#000000" d="M591.9386,-422.99C615.8473,-414.2874 594.0939,-369.7794 582,-337 562.5771,-284.356 519.4229,-293.644 500,-241 485.6159,-202.0133 458.4444,-147.5 500,-147.5"/>
<polygon fill="#000000" stroke="#000000" points="591.8865,-422.9978 581.324,-420.0511 586.9433,-423.7489 582,-424.5 582,-424.5 582,-424.5 586.9433,-423.7489 582.676,-428.9489 591.8865,-422.9978 591.8865,-422.9978"/>
<text text-anchor="start" x="589.003" y="-434.5" font-family="Arial" font-size="10.00" fill="#000000">FOREIGN KEY (role_id) REFERENCES roles(role_id)</text>
</g>
</g>
</svg>
