<?xml version="1.0" encoding="UTF-8" standalone="no"?>
<!DOCTYPE svg PUBLIC "-//W3C//DTD SVG 1.1//EN"
 "http://www.w3.org/Graphics/SVG/1.1/DTD/svg11.dtd">
<!-- Generated by graphviz version 2.40.1 (20161225.0304)
 -->
<!-- Title: public.organisation Pages: 1 -->
<svg width="418pt" height="495pt"
 viewBox="0.00 0.00 418.00 495.00" xmlns="http://www.w3.org/2000/svg" xmlns:xlink="http://www.w3.org/1999/xlink">
<g id="graph0" class="graph" transform="scale(1 1) rotate(0) translate(4 491)">
<title>public.organisation</title>
<polygon fill="#ffffff" stroke="transparent" points="-4,4 -4,-491 414,-491 414,4 -4,4"/>
<!-- public.organisation -->
<g id="node1" class="node">
<title>public.organisation</title>
<polygon fill="#efefef" stroke="transparent" points="46,-405.5 46,-440.5 364,-440.5 364,-405.5 46,-405.5"/>
<polygon fill="none" stroke="#000000" points="46,-405.5 46,-440.5 364,-440.5 364,-405.5 46,-405.5"/>
<text text-anchor="start" x="52.9844" y="-418.3" font-family="Arial Bold" font-size="18.00" fill="#000000">public.organisation</text>
<text text-anchor="start" x="203.0198" y="-418.3" font-family="Arial" font-size="14.00" fill="#000000">    </text>
<text text-anchor="start" x="237.2246" y="-418.3" font-family="Arial" font-size="14.00" fill="#666666">[FOREIGN TABLE]</text>
<polygon fill="none" stroke="#000000" points="46,-375.5 46,-405.5 364,-405.5 364,-375.5 46,-375.5"/>
<text text-anchor="start" x="53" y="-386.9" font-family="Arial" font-size="14.00" fill="#000000">key </text>
<text text-anchor="start" x="78.6732" y="-386.9" font-family="Arial" font-size="14.00" fill="#666666">[varchar(45)]</text>
<polygon fill="none" stroke="#000000" points="46,-345.5 46,-375.5 364,-375.5 364,-345.5 46,-345.5"/>
<text text-anchor="start" x="53" y="-356.9" font-family="Arial" font-size="14.00" fill="#000000">oe_id </text>
<text text-anchor="start" x="91.1276" y="-356.9" font-family="Arial" font-size="14.00" fill="#666666">[varchar(45)]</text>
<polygon fill="none" stroke="#000000" points="46,-315.5 46,-345.5 364,-345.5 364,-315.5 46,-315.5"/>
<text text-anchor="start" x="53" y="-326.9" font-family="Arial" font-size="14.00" fill="#000000">oe_name </text>
<text text-anchor="start" x="115.2468" y="-326.9" font-family="Arial" font-size="14.00" fill="#666666">[varchar(45)]</text>
<polygon fill="none" stroke="#000000" points="46,-285.5 46,-315.5 364,-315.5 364,-285.5 46,-285.5"/>
<text text-anchor="start" x="53" y="-296.9" font-family="Arial" font-size="14.00" fill="#000000">oe_group_name </text>
<text text-anchor="start" x="158.8204" y="-296.9" font-family="Arial" font-size="14.00" fill="#666666">[varchar(45)]</text>
<polygon fill="none" stroke="#000000" points="46,-255.5 46,-285.5 364,-285.5 364,-255.5 46,-255.5"/>
<text text-anchor="start" x="53" y="-266.9" font-family="Arial" font-size="14.00" fill="#000000">vat_number </text>
<text text-anchor="start" x="130.798" y="-266.9" font-family="Arial" font-size="14.00" fill="#666666">[varchar(45)]</text>
<polygon fill="none" stroke="#000000" points="46,-225.5 46,-255.5 364,-255.5 364,-225.5 46,-225.5"/>
<text text-anchor="start" x="53" y="-236.9" font-family="Arial" font-size="14.00" fill="#000000">valid_from </text>
<text text-anchor="start" x="121.446" y="-236.9" font-family="Arial" font-size="14.00" fill="#666666">[date]</text>
<polygon fill="none" stroke="#000000" points="46,-195.5 46,-225.5 364,-225.5 364,-195.5 46,-195.5"/>
<text text-anchor="start" x="53" y="-206.9" font-family="Arial" font-size="14.00" fill="#000000">valid_to </text>
<text text-anchor="start" x="105.1248" y="-206.9" font-family="Arial" font-size="14.00" fill="#666666">[date]</text>
<polygon fill="none" stroke="#000000" points="46,-165.5 46,-195.5 364,-195.5 364,-165.5 46,-165.5"/>
<text text-anchor="start" x="53" y="-176.9" font-family="Arial" font-size="14.00" fill="#000000">email </text>
<text text-anchor="start" x="90.3296" y="-176.9" font-family="Arial" font-size="14.00" fill="#666666">[varchar(45)]</text>
<polygon fill="none" stroke="#000000" points="46,-135.5 46,-165.5 364,-165.5 364,-135.5 46,-135.5"/>
<text text-anchor="start" x="53" y="-146.9" font-family="Arial" font-size="14.00" fill="#000000">fax </text>
<text text-anchor="start" x="75.5638" y="-146.9" font-family="Arial" font-size="14.00" fill="#666666">[varchar(45)]</text>
<polygon fill="none" stroke="#000000" points="46,-105.5 46,-135.5 364,-135.5 364,-105.5 46,-105.5"/>
<text text-anchor="start" x="53" y="-116.9" font-family="Arial" font-size="14.00" fill="#000000">iban </text>
<text text-anchor="start" x="83.345" y="-116.9" font-family="Arial" font-size="14.00" fill="#666666">[varchar(45)]</text>
<polygon fill="none" stroke="#000000" points="46,-75.5 46,-105.5 364,-105.5 364,-75.5 46,-75.5"/>
<text text-anchor="start" x="53" y="-86.9" font-family="Arial" font-size="14.00" fill="#000000">data_protection </text>
<text text-anchor="start" x="153.373" y="-86.9" font-family="Arial" font-size="14.00" fill="#666666">[character(1)]</text>
<polygon fill="none" stroke="#000000" points="46,-45.5 46,-75.5 364,-75.5 364,-45.5 46,-45.5"/>
<text text-anchor="start" x="53" y="-56.9" font-family="Arial" font-size="14.00" fill="#000000">oe_internal_id </text>
<text text-anchor="start" x="144.805" y="-56.9" font-family="Arial" font-size="14.00" fill="#666666">[varchar(45)]</text>
<polygon fill="none" stroke="#000000" stroke-width="3" points="44.5,-44.5 44.5,-442.5 365.5,-442.5 365.5,-44.5 44.5,-44.5"/>
</g>
</g>
</svg>
