<?xml version="1.0" encoding="UTF-8" standalone="no"?>
<!DOCTYPE svg PUBLIC "-//W3C//DTD SVG 1.1//EN"
 "http://www.w3.org/Graphics/SVG/1.1/DTD/svg11.dtd">
<!-- Generated by graphviz version 2.40.1 (20161225.0304)
 -->
<!-- Title: public.claim_person_relation Pages: 1 -->
<svg width="496pt" height="225pt"
 viewBox="0.00 0.00 496.00 225.00" xmlns="http://www.w3.org/2000/svg" xmlns:xlink="http://www.w3.org/1999/xlink">
<g id="graph0" class="graph" transform="scale(1 1) rotate(0) translate(4 221)">
<title>public.claim_person_relation</title>
<polygon fill="#ffffff" stroke="transparent" points="-4,4 -4,-221 492,-221 492,4 -4,4"/>
<!-- public.claim_person_relation -->
<g id="node1" class="node">
<title>public.claim_person_relation</title>
<polygon fill="#efefef" stroke="transparent" points="46,-135.5 46,-170.5 442,-170.5 442,-135.5 46,-135.5"/>
<polygon fill="none" stroke="#000000" points="46,-135.5 46,-170.5 442,-170.5 442,-135.5 46,-135.5"/>
<text text-anchor="start" x="52.9856" y="-148.3" font-family="Arial Bold" font-size="18.00" fill="#000000">public.claim_person_relation</text>
<text text-anchor="start" x="281.0186" y="-148.3" font-family="Arial" font-size="14.00" fill="#000000">    </text>
<text text-anchor="start" x="315.2234" y="-148.3" font-family="Arial" font-size="14.00" fill="#666666">[FOREIGN TABLE]</text>
<polygon fill="none" stroke="#000000" points="46,-105.5 46,-135.5 442,-135.5 442,-105.5 46,-105.5"/>
<text text-anchor="start" x="53" y="-116.9" font-family="Arial" font-size="14.00" fill="#000000">id </text>
<text text-anchor="start" x="67.7798" y="-116.9" font-family="Arial" font-size="14.00" fill="#666666">[uuid]</text>
<polygon fill="none" stroke="#000000" points="46,-75.5 46,-105.5 442,-105.5 442,-75.5 46,-75.5"/>
<text text-anchor="start" x="53" y="-86.9" font-family="Arial" font-size="14.00" fill="#000000">ics_ref_no </text>
<text text-anchor="start" x="121.4614" y="-86.9" font-family="Arial" font-size="14.00" fill="#666666">[varchar(255)]</text>
<polygon fill="none" stroke="#000000" points="46,-45.5 46,-75.5 442,-75.5 442,-45.5 46,-45.5"/>
<text text-anchor="start" x="53" y="-56.9" font-family="Arial" font-size="14.00" fill="#000000">person_id </text>
<text text-anchor="start" x="118.3534" y="-56.9" font-family="Arial" font-size="14.00" fill="#666666">[uuid]</text>
<polygon fill="none" stroke="#000000" stroke-width="3" points="44.5,-44.5 44.5,-172.5 443.5,-172.5 443.5,-44.5 44.5,-44.5"/>
</g>
</g>
</svg>
