<?xml version="1.0" encoding="UTF-8" standalone="no"?>
<!DOCTYPE svg PUBLIC "-//W3C//DTD SVG 1.1//EN"
 "http://www.w3.org/Graphics/SVG/1.1/DTD/svg11.dtd">
<!-- Generated by graphviz version 2.40.1 (20161225.0304)
 -->
<!-- Title: public.emp_oe_relation Pages: 1 -->
<svg width="454pt" height="285pt"
 viewBox="0.00 0.00 454.00 285.00" xmlns="http://www.w3.org/2000/svg" xmlns:xlink="http://www.w3.org/1999/xlink">
<g id="graph0" class="graph" transform="scale(1 1) rotate(0) translate(4 281)">
<title>public.emp_oe_relation</title>
<polygon fill="#ffffff" stroke="transparent" points="-4,4 -4,-281 450,-281 450,4 -4,4"/>
<!-- public.emp_oe_relation -->
<g id="node1" class="node">
<title>public.emp_oe_relation</title>
<polygon fill="#efefef" stroke="transparent" points="46,-195.5 46,-230.5 400,-230.5 400,-195.5 46,-195.5"/>
<polygon fill="none" stroke="#000000" points="46,-195.5 46,-230.5 400,-230.5 400,-195.5 46,-195.5"/>
<text text-anchor="start" x="52.979" y="-208.3" font-family="Arial Bold" font-size="18.00" fill="#000000">public.emp_oe_relation</text>
<text text-anchor="start" x="239.0252" y="-208.3" font-family="Arial" font-size="14.00" fill="#000000">    </text>
<text text-anchor="start" x="273.23" y="-208.3" font-family="Arial" font-size="14.00" fill="#666666">[FOREIGN TABLE]</text>
<polygon fill="none" stroke="#000000" points="46,-165.5 46,-195.5 400,-195.5 400,-165.5 46,-165.5"/>
<text text-anchor="start" x="53" y="-176.9" font-family="Arial" font-size="14.00" fill="#000000">key </text>
<text text-anchor="start" x="78.6732" y="-176.9" font-family="Arial" font-size="14.00" fill="#666666">[uuid]</text>
<polygon fill="none" stroke="#000000" points="46,-135.5 46,-165.5 400,-165.5 400,-135.5 46,-135.5"/>
<text text-anchor="start" x="53" y="-146.9" font-family="Arial" font-size="14.00" fill="#000000">empl_key </text>
<text text-anchor="start" x="116.7882" y="-146.9" font-family="Arial" font-size="14.00" fill="#666666">[uuid]</text>
<polygon fill="none" stroke="#000000" points="46,-105.5 46,-135.5 400,-135.5 400,-105.5 46,-105.5"/>
<text text-anchor="start" x="53" y="-116.9" font-family="Arial" font-size="14.00" fill="#000000">org_key </text>
<text text-anchor="start" x="106.6816" y="-116.9" font-family="Arial" font-size="14.00" fill="#666666">[varchar(255)]</text>
<polygon fill="none" stroke="#000000" points="46,-75.5 46,-105.5 400,-105.5 400,-75.5 46,-75.5"/>
<text text-anchor="start" x="53" y="-86.9" font-family="Arial" font-size="14.00" fill="#000000">valid_from </text>
<text text-anchor="start" x="121.446" y="-86.9" font-family="Arial" font-size="14.00" fill="#666666">[date]</text>
<polygon fill="none" stroke="#000000" points="46,-45.5 46,-75.5 400,-75.5 400,-45.5 46,-45.5"/>
<text text-anchor="start" x="53" y="-56.9" font-family="Arial" font-size="14.00" fill="#000000">valid_to </text>
<text text-anchor="start" x="105.1248" y="-56.9" font-family="Arial" font-size="14.00" fill="#666666">[date]</text>
<polygon fill="none" stroke="#000000" stroke-width="3" points="44.5,-44.5 44.5,-232.5 401.5,-232.5 401.5,-44.5 44.5,-44.5"/>
</g>
</g>
</svg>
