<?xml version="1.0" encoding="UTF-8" standalone="no"?>
<!DOCTYPE svg PUBLIC "-//W3C//DTD SVG 1.1//EN"
 "http://www.w3.org/Graphics/SVG/1.1/DTD/svg11.dtd">
<!-- Generated by graphviz version 2.40.1 (20161225.0304)
 -->
<!-- Title: public.bookmark Pages: 1 -->
<svg width="372pt" height="255pt"
 viewBox="0.00 0.00 372.00 255.00" xmlns="http://www.w3.org/2000/svg" xmlns:xlink="http://www.w3.org/1999/xlink">
<g id="graph0" class="graph" transform="scale(1 1) rotate(0) translate(4 251)">
<title>public.bookmark</title>
<polygon fill="#ffffff" stroke="transparent" points="-4,4 -4,-251 368,-251 368,4 -4,4"/>
<!-- public.bookmark -->
<g id="node1" class="node">
<title>public.bookmark</title>
<polygon fill="#efefef" stroke="transparent" points="46,-165.5 46,-200.5 318,-200.5 318,-165.5 46,-165.5"/>
<polygon fill="none" stroke="#000000" points="46,-165.5 46,-200.5 318,-200.5 318,-165.5 46,-165.5"/>
<text text-anchor="start" x="52.7068" y="-178.3" font-family="Arial Bold" font-size="18.00" fill="#000000">public.bookmark</text>
<text text-anchor="start" x="183.7252" y="-178.3" font-family="Arial" font-size="14.00" fill="#000000">    </text>
<text text-anchor="start" x="217.93" y="-178.3" font-family="Arial" font-size="14.00" fill="#666666">[BASE TABLE]</text>
<polygon fill="none" stroke="#000000" points="46,-135.5 46,-165.5 318,-165.5 318,-135.5 46,-135.5"/>
<text text-anchor="start" x="53" y="-146.9" font-family="Arial" font-size="14.00" fill="#000000">key </text>
<text text-anchor="start" x="78.6732" y="-146.9" font-family="Arial" font-size="14.00" fill="#666666">[uuid]</text>
<polygon fill="none" stroke="#000000" points="46,-105.5 46,-135.5 318,-135.5 318,-105.5 46,-105.5"/>
<text text-anchor="start" x="53" y="-116.9" font-family="Arial" font-size="14.00" fill="#000000">emp_key </text>
<text text-anchor="start" x="113.6816" y="-116.9" font-family="Arial" font-size="14.00" fill="#666666">[text]</text>
<polygon fill="none" stroke="#000000" points="46,-75.5 46,-105.5 318,-105.5 318,-75.5 46,-75.5"/>
<text text-anchor="start" x="53" y="-86.9" font-family="Arial" font-size="14.00" fill="#000000">name </text>
<text text-anchor="start" x="91.899" y="-86.9" font-family="Arial" font-size="14.00" fill="#666666">[text]</text>
<polygon fill="none" stroke="#000000" points="46,-45.5 46,-75.5 318,-75.5 318,-45.5 46,-45.5"/>
<text text-anchor="start" x="53" y="-56.9" font-family="Arial" font-size="14.00" fill="#000000">payload </text>
<text text-anchor="start" x="105.9102" y="-56.9" font-family="Arial" font-size="14.00" fill="#666666">[text]</text>
<polygon fill="none" stroke="#000000" stroke-width="3" points="44.5,-44.5 44.5,-202.5 319.5,-202.5 319.5,-44.5 44.5,-44.5"/>
</g>
</g>
</svg>
